<?xml version="1.0" encoding="utf-8"?>
<!-- Generator: Adobe Illustrator 18.1.1, SVG Export Plug-In . SVG Version: 6.00 Build 0)  -->
<!DOCTYPE svg PUBLIC "-//W3C//DTD SVG 1.1//EN" "http://www.w3.org/Graphics/SVG/1.1/DTD/svg11.dtd">
<svg version="1.1" id="Layer_1" xmlns="http://www.w3.org/2000/svg" xmlns:xlink="http://www.w3.org/1999/xlink" x="0px" y="0px"
	 viewBox="0 0 380 169" enable-background="new 0 0 380 169" xml:space="preserve">
<g>
	<path fill="#043E53" d="M161.3,76.6c-0.4-1.7-1.1-3.2-2.1-4.6c-0.9-1.3-2.1-2.5-3.4-3.4c-1.3-0.9-2.9-1.3-4.6-1.3
		c-1.7,0-3.2,0.4-4.4,1.3c-1.3,0.9-2.4,2-3.3,3.3c-0.9,1.3-1.7,2.8-2.2,4.5c-0.6,1.7-1,3.3-1.2,4.7c-0.2,0.6-0.3,1.6-0.4,3.1
		c-0.1,1.5-0.3,4.1-0.4,7.7c-0.2,3.6-0.3,8.6-0.4,14.8c-0.1,6.2-0.1,14.4-0.1,24.4c0,2,0.2,4.1,0.6,6.4c0.4,2.3,1.1,4.4,2,6.4
		c0.9,2,2.2,3.6,3.7,4.9c1.5,1.2,3.4,1.9,5.7,1.9c2,0,3.7-0.6,5-1.7c1.3-1.1,2.3-2.6,3-4.4c0.7-1.8,1.2-3.7,1.5-5.7
		c0.2-2,0.4-3.9,0.4-5.5c0-1.7-0.7-2.4-2.3-2.4c-1.4,0-2.2,0.6-2.6,1.8c-0.4,1.5-0.7,3.1-0.9,4.9c-0.2,1.9-0.5,3.6-0.8,5.1
		c-0.4,1.8-1.6,2.7-3.4,2.7c-1.2,0-2.3-0.5-3.2-1.4c-0.8-0.8-1.5-1.9-1.9-3.1c-0.5-1.2-0.8-2.4-1-3.6c-0.2-1.2-0.3-2.3-0.3-3
		c0-11.3,0-20.4,0.1-27c0.1-6.6,0.2-11.9,0.3-15.6c0.1-3.7,0.2-6.2,0.3-7.4c0.1-1.3,0.2-2.1,0.3-2.6c0.1-0.7,0.3-1.7,0.6-2.7
		c0.3-1,0.7-2,1.1-2.9c0.4-0.9,1-1.8,1.8-2.4c0.8-0.7,1.8-1.1,2.9-1.1c2.3,0,3.3,1.1,3.7,2.1c0.5,1.2,0.9,2.6,1.2,4
		c0.2,1.4,0.6,2.7,1,3.8c0.3,0.9,1,1.4,2.2,1.4c0.7,0,1.3-0.3,1.7-0.8c0.5-0.6,0.7-1.1,0.7-1.8C162,79.9,161.8,78.3,161.3,76.6z"/>
	<path fill="#043E53" d="M170.3,137.6c0.4,2.3,1.1,4.4,2,6.4c0.9,2,2.2,3.6,3.7,4.9c1.5,1.2,3.4,1.9,5.7,1.9c2,0,3.8-0.5,5.2-1.6
		c1.4-1.1,2.6-2.5,3.5-4.2c0.9-1.7,1.5-3.5,1.9-5.5c0.4-2,0.6-3.8,0.6-5.4c0-1.7-0.7-2.4-2.3-2.4c-0.7,0-1.1,0.2-1.5,0.8
		c-0.4,0.6-0.8,1.4-1.1,2.4c-0.3,1-0.6,2.1-0.9,3.3c-0.3,1.2-0.6,2.4-1,3.5c-0.4,1.1-0.9,2.1-1.6,2.8c-0.7,0.8-1.7,1.3-2.9,1.3
		c-1.2,0-2.3-0.5-3.2-1.4c-0.8-0.8-1.5-1.9-1.9-3.1c-0.5-1.2-0.8-2.4-1-3.6c-0.2-1.2-0.3-2.3-0.3-3c0-11.6,0-21,0.1-28.6
		c0-7.8,0.1-14.1,0.1-19.1c0-4.9,0.1-8.6,0.2-10.9c0.1-3.5,0.2-4,0.3-4.2c0.1-0.7,0.3-1.7,0.6-2.7c0.3-1,0.7-2,1.1-2.9
		c0.4-0.9,1-1.8,1.8-2.4c0.8-0.7,1.8-1.1,2.9-1.1c2.3,0,3.3,1.1,3.7,2.1c0.5,1.2,0.9,2.6,1.2,4c0.2,1.4,0.6,2.7,1,3.8
		c0.3,0.9,1,1.4,2.2,1.4c0.7,0,1.3-0.3,1.7-0.8c0.5-0.6,0.7-1.1,0.7-1.8c0-1.6-0.2-3.3-0.7-5c-0.4-1.7-1.1-3.2-2.1-4.6
		c-0.9-1.3-2.1-2.5-3.4-3.4c-1.3-0.9-2.9-1.3-4.6-1.3c-1.7,0-3.2,0.4-4.4,1.3c-1.3,0.9-2.4,2-3.3,3.3c-0.9,1.3-1.7,2.8-2.2,4.5
		c-0.6,1.7-1,3.3-1.2,4.7c-0.1,0.4-0.3,1.5-0.4,4.6c-0.1,2.6-0.2,6.3-0.3,11.2c-0.1,4.9-0.2,11-0.3,18.3c0,7.2-0.1,15.7-0.1,26
		C169.7,133.1,169.9,135.3,170.3,137.6z"/>
	<path fill="#043E53" d="M201.5,150.4c0.5,0.3,1.2,0.4,1.9,0.4c0.7,0,1.4-0.2,2-0.6c0.6-0.3,0.6-0.7,0.6-1c-0.3-7.6-0.5-15.3-0.5-23
		c0-7.6,0-15.4,0.1-22.9c0.1-7.6,0.1-15.2,0.2-22.8c0-7.5-0.1-15.2-0.3-22.7c-0.1-0.5-0.3-1-0.7-1.2c-0.9-0.6-2.2-0.6-3.2,0
		c-0.4,0.2-0.7,0.6-0.8,1.1c0.2,4.6,0.3,10.1,0.4,16.1c0.1,6.1,0.1,12.5,0.1,18.8l-0.1,19.2c0,6.4-0.1,12.1-0.1,17.4
		c0,5.2-0.1,9.7-0.1,13.3c0,3.6,0,5.9,0.1,6.9l0,0.1l0,0.1C201,149.9,201.1,150.2,201.5,150.4z"/>
	<path fill="#043E53" d="M234.4,72.3c-0.7-1.7-1.8-3.1-3.2-4.3c-1.3-1-3.1-1.6-5.3-1.6c-0.2,0-0.3,0-0.5,0c-2.4,0.1-4.4,1.2-5.9,3.4
		c-1.6,2.3-2.9,5.4-3.8,9.3c-0.2,1.2-0.5,3.2-0.8,6c-0.3,2.8-0.5,6-0.8,9.7c-0.2,3.6-0.3,7.6-0.3,11.9c0,4.2,0.1,8.5,0.3,12.7
		c0.2,4.2,0.6,8.3,1.1,12.2c0.5,3.9,1.3,7.3,2.2,10.2c0.9,2.9,2.1,5.2,3.5,6.8c1.3,1.6,2.8,2.3,4.7,2.1c1.7-0.2,3.1-0.9,4.4-2.4
		c1.3-1.5,2.4-3.6,3.2-6c0.9-2.5,1.6-5.4,2-8.6c0.5-3.2,0.9-6.5,1.1-9.9c0.2-3.4,0.3-6.7,0.2-9.8c0-3.2-0.1-6.1-0.2-8.6
		c-0.1-0.7-0.5-1.2-1-1.5c-1.2-0.7-2.6-0.7-3.7-0.1c-0.5,0.3-0.7,0.6-0.7,1.1c0.2,1.4,0.4,3.5,0.5,6c0.1,2.5,0.1,5.3,0,8.2
		c-0.1,2.9-0.2,5.9-0.4,8.9c-0.2,3-0.5,5.8-0.9,8.2c-0.4,2.4-0.9,4.5-1.5,6.1c-0.7,1.8-1.5,2.7-2.6,2.8c-0.1,0-0.1,0-0.2,0
		c-1.4,0-2.5-1.2-3.4-3.6c-0.8-2.3-1.6-5.3-2.1-8.8c-0.5-3.5-0.9-7.5-1.2-11.8c-0.3-4.3-0.4-8.4-0.4-12.3c0-3.9,0-7.4,0.1-10.6
		c0.1-3.2,0.3-5.3,0.6-6.5l0.1-0.5l0.5,0c1.6,0.1,3.3,0.1,5.2,0.1c1.9,0,3.7-0.3,5.3-0.7c1.6-0.4,3-1.2,4.1-2.2c1-1,1.6-2.4,1.6-4.3
		c0-1.8-0.1-3.8-0.3-5.9C235.6,75.9,235.1,74,234.4,72.3z M229.2,85.5c-1,0.3-2.1,0.4-3.3,0.5c-0.4,0-0.8,0-1.2,0
		c-0.8,0-1.5,0-2.3-0.1c-1.1-0.1-1.8-0.1-2.2-0.1h-0.6v-0.6c0-0.9,0.1-2,0.3-3.5c0.2-1.4,0.5-2.9,1-4.4c0.5-1.5,1.1-2.8,1.8-4
		c0.8-1.2,1.8-1.9,2.9-2c0.2,0,0.4,0,0.6,0c1.2,0,2.2,0.5,2.8,1.5c0.7,1.1,1.2,2.3,1.5,3.7c0.3,1.4,0.5,2.7,0.5,4.1
		c0,1.3,0.1,2.3,0.1,2.9C231,84.2,230.6,85.1,229.2,85.5z"/>
	<path fill="#043E53" d="M245.2,150.4c0.5,0.3,1.2,0.4,1.9,0.4c0.7,0,1.4-0.2,2-0.6c0.6-0.3,0.6-0.7,0.6-1c-0.3-7.6-0.5-15.3-0.5-23
		c0-7.5,0-15.3,0.1-22.9c0.1-7.6,0.1-15.2,0.2-22.8c0-7.5-0.1-15.2-0.3-22.7c-0.1-0.5-0.3-1-0.7-1.2c-0.9-0.6-2.2-0.6-3.2,0
		c-0.4,0.2-0.7,0.6-0.8,1.1c0.2,4.6,0.3,10.1,0.4,16.1c0.1,6.2,0.1,12.5,0.1,18.8l-0.1,19.2c0,6.4-0.1,12.1-0.1,17.4
		c0,5.2-0.1,9.7-0.1,13.3c0,3.6,0,5.9,0.1,6.9l0,0.1l0,0.1C244.6,150,244.7,150.2,245.2,150.4z"/>
	<path fill="#043E53" d="M258.5,150.4c0.5,0.3,1.2,0.4,1.9,0.4c0.7,0,1.4-0.2,2-0.6c0.6-0.3,0.6-0.7,0.6-1c-0.3-7.6-0.5-15.3-0.5-23
		c0-7.5,0-15.3,0.1-22.9c0.1-7.6,0.1-15.2,0.2-22.8c0-7.5-0.1-15.2-0.3-22.7c-0.1-0.5-0.3-1-0.7-1.2c-0.9-0.6-2.2-0.6-3.2,0
		c-0.4,0.2-0.7,0.6-0.8,1.1c0.2,4.6,0.3,10.1,0.4,16.1c0.1,6.2,0.1,12.5,0.1,18.8l-0.1,19.2c0,6.4-0.1,12.1-0.1,17.4
		c0,5.2-0.1,9.7-0.1,13.3c0,3.6,0,5.9,0.1,6.9l0,0.1l0,0.1C257.9,150,258,150.2,258.5,150.4z"/>
	<path fill="#043E53" d="M296.7,67.9c-0.1-0.8-0.3-1.3-0.9-1.6c-0.5-0.3-1.1-0.5-1.7-0.5l-0.2,0c-0.7,0-1.4,0.3-2,0.7
		c-0.5,0.4-0.8,0.9-0.9,1.5l-0.4,4.1l-0.9-1.4c-1.5-2.3-3.7-3.2-6.6-3c-2.5,0.2-4.5,1.1-6,2.9c-1.5,1.8-2.7,4-3.5,6.4
		c-0.8,2.5-1.3,5.1-1.6,7.7c-0.3,2.7-0.5,5-0.6,6.8c-0.2,2.9-0.3,6.2-0.4,9.9c-0.1,3.7-0.1,7.5-0.1,11.3c0,3.9,0.1,7.7,0.3,11.4
		c0.1,3.7,0.3,7,0.6,9.9c0.2,2,0.5,3.9,0.9,5.8c0.4,1.9,1,3.5,1.9,5c0.8,1.4,1.9,2.6,3.3,3.4c1.3,0.9,3.1,1.3,5.2,1.4
		c1.3,0,2.4-0.1,3.1-0.3c0.8-0.2,1.8-0.7,3.1-1.3l0.6-0.3l0.2,0.6c0.7,2.1,1.8,2.4,2.6,2.4c0.6,0,1.3-0.2,2-0.6
		c0.6-0.3,1-0.7,1.3-1.2c-0.1-0.7-0.2-2.1-0.3-5.1c-0.1-3.7-0.1-9.1-0.1-16.1c0-7,0.1-15.7,0.3-25.7C296.1,92,296.4,80.5,296.7,67.9
		z M291.1,80.3l-0.9,57.8l-0.1,0.1c-0.6,1.3-1.3,2.6-2.1,4c-0.9,1.6-2.3,2.4-4.2,2.4c-1.7,0-3-0.5-3.9-1.3c-0.9-0.9-1.6-1.9-2.1-3.2
		c-0.5-1.2-0.8-2.5-1-3.8c-0.2-1.3-0.3-2.5-0.4-3.5c-0.3-3.3-0.5-7.1-0.6-11.3c-0.1-4.3-0.1-8.4-0.1-12.2c0-3.9,0.1-7.4,0.2-10.4
		c0.1-3,0.2-5,0.3-6c0.1-1.2,0.2-2.9,0.3-5.1c0.1-2.2,0.4-4.3,0.8-6.4c0.4-2.1,1.1-4,2.1-5.6c1-1.7,2.5-2.7,4.3-2.8
		c1.1-0.1,2,0.1,2.8,0.7c0.8,0.5,1.4,1.1,2,1.8c0.5,0.7,1,1.5,1.4,2.3c0.4,0.8,0.8,1.6,1,2.3l0,0.1L291.1,80.3z"/>
	<path fill="#043E53" d="M326.9,82.5c-0.6-4.7-1.5-8.6-2.7-11.5c-1.2-2.7-2.6-4-4.4-3.9c-1.3,0.1-2.5,0.4-3.5,0.9
		c-1.1,0.6-2,1.2-2.8,1.8c-0.8,0.6-1.5,1.2-1.9,1.6c-0.6,0.6-1.1,0.9-1.5,0.9h-0.4l-0.2-0.3c-0.3-0.5-0.5-1.1-0.7-1.8
		c-0.2-0.6-0.4-1.2-0.7-1.7c-0.3-0.5-0.6-1-1-1.4c-0.3-0.3-0.7-0.5-1.1-0.5c-0.8,0-1.5,0.3-2.2,0.8c-0.6,0.5-0.7,1.5-0.4,3.1
		c0.5,2.4,0.9,5.8,1.1,10.1c0.2,4.3,0.4,9.2,0.4,14.4c0,5.2,0,10.7-0.1,16.4c-0.1,5.6-0.2,10.9-0.3,15.9c-0.1,4.9-0.2,9.2-0.3,12.9
		c-0.1,3.7-0.2,6.1-0.2,7.4c0,0.8,0.3,1.5,0.9,2c1.2,1.1,2.6,1,3.8,0.1c0.6-0.5,0.9-1.3,0.9-2.6c0-5,0-10.2,0.1-15.3
		c0.1-5.1,0.1-10.3,0.2-15.7c0-5.4,0.1-11,0.1-16.9v-19l0.1-0.1c0.3-0.5,0.7-1.2,1.3-2c0.6-0.8,1.3-1.5,2-2.3c0.7-0.8,1.5-1.5,2.3-2
		c0.8-0.6,1.6-1,2.4-1.1c0.1,0,0.2,0,0.3,0c0.6,0,1.2,0.4,1.8,1c0.6,0.7,1,2,1.4,4.1c0.4,1.9,0.7,4.7,1,8.2
		c0.3,3.5,0.4,8.1,0.5,13.7c0.1,5.6,0,12.5-0.1,20.5c-0.2,8.1-0.5,17.6-0.9,28.4c-0.1,1,0.3,1.4,0.6,1.6c0.5,0.4,1,0.5,1.5,0.5
		l0.2,0c0.6,0,1.2-0.3,1.8-0.8c0.6-0.5,0.9-1.3,1.1-2.4c0-3.4,0.1-7.9,0.3-13.3c0.2-5.4,0.4-11.2,0.4-17.2c0.1-6,0.1-12.2,0-18.2
		C327.8,92.8,327.5,87.3,326.9,82.5z"/>
	<path fill="#043E53" d="M362.1,122.5c0.1-8.3,0.3-18.1,0.4-29.2c0.1-11.1,0.1-23,0.1-35.4c-0.1-0.8-0.4-1.3-0.9-1.6
		c-0.6-0.3-1.2-0.5-1.8-0.5l-0.2,0c-0.7,0-1.4,0.3-2,0.7c-0.5,0.4-0.8,0.8-0.8,1.5v16.2l-1.1-1.6c-1.5-2.3-3.8-3.2-7-3
		c-1.6,0.2-3,0.6-4.1,1.4c-1.2,0.8-2.2,1.7-3,2.9c-0.8,1.2-1.4,2.5-1.9,3.9c-0.5,1.5-0.8,3-1,4.4c-1.2,8.1-1.9,16.1-2.2,23.7
		c-0.3,7.6-0.5,15.5-0.5,23.4c0,3.2,0.4,6.1,1.1,8.7c0.7,2.6,1.7,4.9,2.9,6.7c1.2,1.8,2.5,3.2,3.9,4.1c1.4,0.9,2.8,1.3,4.3,1.1
		c1.4-0.2,2.6-0.3,3.5-0.5c0.9-0.2,2-0.6,3.3-1.2l0.6-0.3l0.2,0.6c0.7,2.1,1.8,2.4,2.6,2.4c0.6,0,1.3-0.2,2-0.6
		c0.6-0.3,1-0.8,1.3-1.2c-0.1-0.6-0.1-2.2-0.1-6.8C361.8,137.4,362,130.9,362.1,122.5z M356.8,82l-0.9,56.1l-0.1,0.1
		c-0.6,1.3-1.4,2.6-2.4,4c-1.1,1.5-2.6,2.3-4.4,2.3c-1.8,0-3.3-0.7-4.4-2c-1-1.3-1.8-2.8-2.3-4.5c-0.5-1.7-0.8-3.5-1-5.3
		c-0.1-1.8-0.2-3.3-0.2-4.5c0-9.6,0.1-17.3,0.3-23c0.2-5.7,0.5-10.1,0.8-13.2c0.3-3.2,0.6-5.2,0.8-6.3c0.3-1.4,0.4-1.7,0.4-1.8
		l0-0.1c0.1-0.3,0.2-0.8,0.3-1.5c0.1-0.7,0.4-1.6,0.7-2.4c0.3-0.8,0.8-1.7,1.2-2.5c0.5-0.9,1.2-1.6,2-2c1-0.6,2-0.7,3-0.4
		c0.9,0.3,1.8,0.9,2.5,1.6c0.7,0.7,1.4,1.6,2,2.5c0.6,1,1.1,1.9,1.4,2.7l0,0.1L356.8,82z"/>
	<path fill="#0092B7" d="M95.2,31.7c0-1.5,1.1,26.7,1.1,26.7l14,23.3l14.3-25.7l-1.7-24.3l-12.6,19.6l-11-17.4L95.2,31.7z"/>
	<path fill="#043E53" d="M19.7,103.9c1.2,2.2,2.8,4,4.7,5.4c1.9,1.4,4.4,2.1,7.3,2.1c4.6,0,8.3-1.6,11-4.7c2.8-3.1,4.3-7.2,4.4-12.1
		c0.1-3.2-0.3-6.2-1-8.9c-0.7-2.7-1.8-5.4-3-7.8c-1.3-2.5-2.8-4.9-4.5-7.2c-1.7-2.3-3.6-4.6-5.5-6.9c-1.3-1.5-2.5-3.1-3.7-4.7
		c-1.2-1.6-2.3-3.3-3.4-5.1c-1-1.8-1.9-3.7-2.5-5.7c-0.6-2-1-4.2-1-6.5c0-1.6,0.1-3.5,0.4-5.5c0.3-2.1,0.8-4.1,1.5-6
		c0.7-1.9,1.8-3.6,3.1-5c1.4-1.4,3.1-2.1,5.3-2.1c1.1,0,2.2,0.3,3.2,0.8c1,0.5,2,1.5,2.8,2.7c0.8,1.2,1.4,2.8,2,4.8
		c0.5,2,0.8,4.5,0.8,7.4c0,0.8,0.2,1.4,0.7,1.8c0.5,0.4,1,0.6,1.6,0.6l0.2,0c0.7,0,1.3-0.3,1.8-0.7c0.5-0.4,0.7-1.1,0.7-2
		c0-2.8-0.3-5.5-0.9-8.1c-0.6-2.6-1.4-4.9-2.5-6.8c-1.1-1.9-2.5-3.5-4.1-4.6c-1.7-1.1-3.6-1.7-5.8-1.7c-3.4,0-6.1,0.8-8,2.4
		c-2,1.6-3.6,3.7-4.7,6.1c-1.1,2.4-1.9,5.1-2.2,8c-0.3,2.9-0.5,5.7-0.5,8.3c0,3,0.4,5.8,1,8.2c0.7,2.4,1.6,4.7,2.6,6.7
		c1,2.1,2.2,3.9,3.5,5.6c1.3,1.7,2.7,3.4,4.1,4.9c2.1,2.5,4,4.9,5.7,7.1c1.7,2.2,3.2,4.6,4.3,6.9c1.1,2.3,2,4.8,2.4,7.4
		c0.5,2.6,0.4,5.4-0.1,8.5c-0.4,2.5-1.5,4.6-3,6.3c-1.6,1.7-3.9,2.5-6.7,2.5c-1,0-2.1-0.3-3.3-0.9c-1.2-0.6-2.2-1.6-3.2-3
		c-0.9-1.3-1.6-3.1-2.2-5.3c-0.5-2.1-0.6-4.8-0.3-8c-0.1-0.7-0.4-1.3-0.9-1.7c-0.5-0.4-1.1-0.7-1.8-0.8c-0.1,0-0.2,0-0.3,0
		c-0.5,0-1,0.2-1.5,0.5c-0.5,0.4-0.8,0.9-0.9,1.8c-0.4,2.5-0.5,5.1-0.1,7.7C17.8,99.2,18.6,101.7,19.7,103.9z"/>
	<path fill="#043E53" d="M80.6,28.4c-0.1-0.8-0.3-1.3-0.9-1.6c-0.5-0.3-1.1-0.5-1.7-0.5l-0.2,0c-0.7,0-1.4,0.3-2,0.7
		c-0.5,0.4-0.8,0.9-0.9,1.5l-0.4,4.1l-0.9-1.4C72.1,29,70,28,67,28.2c-2.5,0.2-4.5,1.1-6,2.9c-1.5,1.8-2.7,4-3.5,6.4
		c-0.8,2.5-1.3,5.1-1.6,7.7c-0.3,2.7-0.5,5-0.6,6.8c-0.2,2.9-0.3,6.2-0.4,9.9c-0.1,3.7-0.1,7.5-0.1,11.3c0,3.9,0.1,7.7,0.3,11.4
		c0.1,3.7,0.3,7,0.6,9.9c0.2,2,0.5,3.9,0.9,5.8c0.4,1.9,1,3.5,1.9,5c0.8,1.4,1.9,2.6,3.3,3.4c1.3,0.9,3.1,1.3,5.2,1.4
		c1.3,0,2.4-0.1,3.1-0.3c0.8-0.2,1.8-0.7,3.1-1.3l0.6-0.3l0.2,0.6c0.5,1.6,1.4,2.4,2.6,2.4c0.6,0,1.3-0.2,2-0.6
		c0.6-0.3,1-0.7,1.3-1.2c-0.1-0.7-0.2-2.1-0.3-5.1c-0.1-3.6-0.1-9.1-0.1-16.1c0-7.1,0.1-15.7,0.3-25.7C80,52.4,80.2,40.9,80.6,28.4z
		 M74,98.6c-0.6,1.3-1.3,2.6-2.1,4c-0.9,1.6-2.3,2.4-4.2,2.4c-1.7,0-3-0.5-3.9-1.3c-0.9-0.9-1.6-1.9-2.1-3.2c-0.5-1.2-0.8-2.5-1-3.8
		c-0.2-1.3-0.3-2.5-0.4-3.5c-0.3-3.3-0.5-7.1-0.6-11.3c-0.1-4.2-0.1-8.3-0.1-12.2c0-3.9,0.1-7.4,0.2-10.4c0.1-3,0.2-5,0.3-6
		c0.1-1.2,0.2-2.9,0.3-5.1c0.1-2.2,0.4-4.3,0.8-6.4c0.4-2.1,1.1-4,2.1-5.6c1-1.7,2.5-2.7,4.3-2.8c1.1-0.1,2,0.1,2.8,0.7
		c0.8,0.5,1.4,1.1,2,1.8c0.5,0.7,1,1.5,1.4,2.3c0.4,0.9,0.8,1.6,1,2.3l0,0.1L74,98.6z"/>
	<path fill="#043E53" d="M112.9,84.6l9.4-20.5l1.1,84.8c0.1,0.2,0.4,0.7,0.9,0.9c0.4,0.3,0.8,0.4,1.1,0.4c0.2,0,0.4-0.1,0.4-0.1
		c1.5-0.5,2.4-1.7,2.7-2.1l-1.3-118.3c0.1-0.9,0-1.6-0.4-2.1c-0.5-0.6-1-0.9-1.7-1.1c-0.7-0.1-1.5,0-2.3,0.4
		c-0.8,0.4-1.6,1.2-2.3,2.4L110,49.7l-0.4-1.4c-0.2-0.9-0.8-2.2-1.5-4.1c-0.8-1.8-1.7-3.8-2.7-5.8c-1-2-2-3.9-2.9-5.7
		c-0.9-1.8-1.6-2.9-2-3.5c-0.6-0.7-1.3-1.3-2.2-1.7c-0.9-0.4-1.8-0.6-2.7-0.5c-0.9,0.1-1.7,0.4-2.3,0.9c-0.6,0.5-1,1.4-1.2,2.7
		l0.4,118.3c0.2,0.4,0.7,0.8,1,1c0.4,0.3,0.8,0.4,1.2,0.4c0.3,0,0.4-0.1,0.4-0.1c2.2-0.6,2.9-1.8,3-2.1L97.7,63l1.1,2
		c0.5,0.9,1,2,1.7,3.5c0.8,1.7,1.6,3.6,2.4,5.5c0.8,2,1.5,3.8,2.3,5.6c0.7,1.8,1.2,3.1,1.6,4c0.2,0.9,0.5,1.5,1.1,1.9
		c0.6,0.4,1.2,0.7,2,0.7c0.8,0,1.4-0.1,2-0.4C112.3,85.6,112.7,85.2,112.9,84.6z M110,78.4l-0.4-1.4c-0.2-0.9-0.8-2.2-1.5-4.1
		c-0.8-1.9-1.7-3.8-2.7-5.8c-1-2-2-3.9-2.9-5.7c-0.9-1.8-1.6-2.9-2-3.5c-0.6-0.7-1.3-1.3-2.2-1.7c-0.1,0-0.2-0.1-0.3-0.1l-0.4-0.1
		l-0.1-0.4c-0.1-5.9-0.1-12.4-0.1-19.3V34l1.1,1.9c0.5,0.9,1.2,2.2,2,4c0.8,1.7,1.6,3.6,2.4,5.5c0.8,2,1.5,3.8,2.3,5.6
		c0.7,1.8,1.2,3.1,1.6,4c0.2,0.9,0.5,1.5,1.1,1.9c0.6,0.4,1.2,0.7,2,0.7c0.7,0.1,1.4-0.1,2-0.4c0.6-0.3,1-0.7,1.2-1.3l9.4-20.5
		l0.3,20.2l-0.3,0.2c-0.7,0.5-1.4,1.2-1.9,2.2L110,78.4z"/>
</g>
</svg>
